<svg width="70" height="70" viewBox="0 0 70 70" fill="none" xmlns="http://www.w3.org/2000/svg">
<path d="M4.82764 55.5171V60.3446C4.82764 61.6782 5.90785 62.7584 7.24141 62.7584H12.0689C13.4025 62.7584 14.4827 61.6782 14.4827 60.3446V55.5171H4.82764Z" fill="#235671"/>
<path d="M7.24145 24.1377L0.707246 30.6718C0.254707 31.1245 0 31.7387 0 32.3783V50.6893C0 53.3553 2.16152 55.5169 4.82754 55.5169H65.1725C67.8385 55.5169 70 53.3553 70 50.6893V32.3783C70 31.7386 69.7453 31.1243 69.2928 30.6718L62.7586 24.1376L54.9778 8.576C54.5686 7.75773 53.7335 7.24121 52.8186 7.24121H16.0747C15.1092 7.24121 14.2367 7.81693 13.8564 8.70396L7.24145 24.1377Z" fill="#FCBF49"/>
<path d="M0 20.5168C0 21.8503 1.08022 22.9306 2.41377 22.9306H7.24131V20.5168C7.24131 19.1832 6.16109 18.103 4.82754 18.103H2.41377C1.08022 18.103 0 19.1831 0 20.5168Z" fill="#FFBC05"/>
<path d="M62.7583 20.5168V22.9306H67.5859C68.9194 22.9306 69.9996 21.8503 69.9996 20.5168C69.9996 19.1832 68.9194 18.103 67.5859 18.103H65.1722C63.8385 18.103 62.7583 19.1831 62.7583 20.5168Z" fill="#FFBC05"/>
<path d="M28.9653 55.5172H65.1723C67.8383 55.5172 69.9998 53.3556 69.9998 50.6896V37.3921C59.4913 48.9517 44.5874 55.5341 28.9653 55.5172Z" fill="#E38100"/>
<path d="M47.0692 33.793L50.69 37.4137L45.8623 50.6896H24.1382L19.3105 37.4137L22.9313 33.793H47.0692Z" fill="#003049"/>
<path d="M19.3104 50.6898L16.8966 44.6553H4.82764V50.6898H19.3104Z" fill="#235671"/>
<path d="M50.6899 50.6898L53.1037 44.6553H65.1727V50.6898H50.6899Z" fill="#235671"/>
<path d="M4.82764 37.4137V33.793H10.0076C11.9821 33.793 13.7562 34.995 14.4901 36.8272L15.6898 39.8275H7.24154C5.90785 39.8275 4.82764 38.7474 4.82764 37.4137Z" fill="#EDEDEE"/>
<path d="M26.5778 50.9437L28.938 50.438L25.3178 33.5415L22.9576 34.0472L26.5778 50.9437Z" fill="#235671"/>
<path d="M30.1783 50.7799L32.585 50.6079L31.3767 33.7047L28.9701 33.8767L30.1783 50.7799Z" fill="#235671"/>
<path d="M36.2072 33.793H33.7935V50.6895H36.2072V33.793Z" fill="#235671"/>
<path d="M39.7948 50.7766L40.9971 33.8857L38.5916 33.7145L37.3894 50.6054L39.7948 50.7766Z" fill="#235671"/>
<path d="M43.418 50.9482L47.0469 34.0532L44.6869 33.5463L41.0581 50.4413L43.418 50.9482Z" fill="#235671"/>
<path d="M46.7072 51.8964H23.2933L17.9141 37.1034L22.4315 32.5859H47.5688L52.0862 37.1034L46.7072 51.8964ZM24.983 49.4826H45.0175L49.2935 37.7238L46.5695 34.9998H23.4309L20.707 37.7238L24.983 49.4826Z" fill="#235671"/>
<path d="M18.1036 12.0688H51.8966L56.7243 24.1378H13.2759L18.1036 12.0688Z" fill="#235671"/>
<path d="M47.7386 12.0688C42.3341 17.5844 35.6854 21.7228 28.3511 24.1378H56.724L51.8965 12.0688H47.7386Z" fill="#003049"/>
<path d="M65.1727 37.4137V33.793H59.9927C58.0182 33.793 56.2442 34.995 55.5103 36.8272L54.3105 39.8275H62.7588C64.0925 39.8275 65.1727 38.7474 65.1727 37.4137Z" fill="#EDEDEE"/>
<path d="M69.2881 18.8057C68.0896 21.3244 65.5491 22.9297 62.7588 22.9309H67.5863C68.9199 22.9309 70.0001 21.8494 70.0001 20.5171C69.9989 19.8738 69.7431 19.2583 69.2881 18.8057Z" fill="#E38100"/>
<path d="M6.52943 18.8057C5.56748 20.8236 3.72588 22.2839 1.54248 22.7619C1.82002 22.8717 2.11574 22.9297 2.41393 22.9309H7.24146V20.5171C7.2416 19.8751 6.98566 19.2583 6.52943 18.8057Z" fill="#E38100"/>
<path d="M14.017 61.7591C14.3188 61.3488 14.4818 60.8539 14.4829 60.3446V55.5171H4.82764V56.7843C8.44357 57.1126 11.7649 58.9109 14.017 61.7591Z" fill="#003049"/>
<path d="M55.5171 55.5171V60.3446C55.5171 61.6782 56.5973 62.7584 57.9309 62.7584H62.7584C64.092 62.7584 65.1722 61.6782 65.1722 60.3446V55.5171H55.5171Z" fill="#235671"/>
<path d="M64.7065 61.7591C65.0082 61.3488 65.1712 60.8539 65.1723 60.3446V55.5171H55.5171V56.7843C59.133 57.1126 62.4545 58.9109 64.7065 61.7591Z" fill="#003049"/>
</svg>
