<svg width="70" height="70" viewBox="0 0 70 70" fill="none" xmlns="http://www.w3.org/2000/svg">
<path d="M16.543 70.0002H12.4414C9.04907 70.0002 6.28906 67.2402 6.28906 63.8479V56.6039C6.28906 55.327 7.4469 54.363 8.70407 54.5852L21.0088 56.8122C21.9861 56.9906 22.6953 57.8397 22.6953 58.8309V63.8479C22.6953 67.2402 19.9353 70.0002 16.543 70.0002Z" fill="#235671"/>
<path d="M12.4414 41.1523C11.9164 41.1523 11.392 40.9521 10.9914 40.5515L7.49069 37.0508H4.23828C3.10501 37.0508 2.1875 36.1333 2.1875 35C2.1875 33.8667 3.10501 32.9492 4.23828 32.9492H8.33984C8.88458 32.9492 9.40529 33.1655 9.78981 33.55L13.8914 37.6516C14.6925 38.4527 14.6925 39.7504 13.8914 40.5515C13.4908 40.9521 12.9664 41.1523 12.4414 41.1523Z" fill="#FCBF49"/>
<path d="M57.5586 41.1523C57.0336 41.1523 56.5092 40.9521 56.1086 40.5515C55.3075 39.7504 55.3075 38.4527 56.1086 37.6516L60.2102 33.55C60.5947 33.1655 61.1154 32.9492 61.6602 32.9492H65.7617C66.895 32.9492 67.8125 33.8667 67.8125 35C67.8125 36.1333 66.895 37.0508 65.7617 37.0508H62.5093L59.0086 40.5515C58.608 40.9521 58.0836 41.1523 57.5586 41.1523Z" fill="#FCBF49"/>
<path d="M57.5586 70.0002H53.457C50.0647 70.0002 47.3047 67.2401 47.3047 63.8478V58.8309C47.3047 57.8397 48.0139 56.9905 48.9912 56.8121L61.2959 54.5851C62.5104 54.348 63.7109 55.3018 63.7109 56.6039V63.8478C63.7109 67.2401 60.9509 70.0002 57.5586 70.0002Z" fill="#235671"/>
<path d="M63.1894 66.242C63.4912 65.8317 63.6541 65.3368 63.6552 64.8275V57.5L47.5 58V61C51.1159 61.3283 60.9372 63.3938 63.1894 66.242Z" fill="#003049"/>
<path d="M22.1894 66.242C22.4912 65.8317 22.6541 65.3368 22.6552 64.8275V60L6.5 58V61C10.1159 61.3283 19.9372 63.3938 22.1894 66.242Z" fill="#003049"/>
<path d="M50.9552 9.51584C50.1349 10.295 48.8633 10.295 48.043 9.51584C44.4338 5.90614 39.717 4.10156 35.0002 4.10156C30.2834 4.10156 25.5666 5.90614 21.9575 9.51584C21.1371 10.295 19.8656 10.295 19.0452 9.51584C18.2655 8.69553 18.2655 7.42393 19.0452 6.60362C23.4336 2.21474 29.2169 0 35.0002 0C40.7835 0 46.5668 2.21474 50.9552 6.60362C51.7349 7.42393 51.7349 8.69553 50.9552 9.51584Z" fill="#235671"/>
<path d="M45.1308 15.2987C44.3521 16.119 43.0394 16.119 42.2602 15.2987C40.3322 13.3713 37.6662 12.387 35.0002 12.387C32.3342 12.387 29.6682 13.3713 27.7402 15.2987C26.961 16.119 25.6483 16.119 24.8691 15.2987C24.0488 14.5195 24.0488 13.2074 24.8691 12.4282C27.5763 9.72102 31.3088 8.36719 35.0002 8.36719C38.6916 8.36719 42.4241 9.72102 45.1308 12.4282C45.9511 13.2068 45.9511 14.5195 45.1308 15.2987Z" fill="#235671"/>
<path d="M42.26 15.2987C40.332 13.3713 37.666 12.387 35 12.387V8.36719C38.6914 8.36719 42.4239 9.72102 45.1305 12.4282C45.9509 13.2068 45.9509 14.5195 45.1305 15.2987C44.3519 16.119 43.0392 16.119 42.26 15.2987Z" fill="#235671"/>
<path d="M48.0428 9.51584C44.4336 5.90614 39.7168 4.10156 35 4.10156V0C40.7833 0 46.5666 2.21474 50.955 6.60362C51.7342 7.42393 51.7342 8.69553 50.955 9.51584C50.1347 10.295 48.8631 10.295 48.0428 9.51584Z" fill="#235671"/>
<path d="M57.5586 39.1016H12.4414L19.4958 24.9512C20.1933 23.5567 21.6288 22.6953 23.1877 22.6953H46.8123C48.3712 22.6953 49.8067 23.5567 50.5042 24.9512L57.5586 39.1016Z" fill="#235671"/>
<path d="M59.4044 38.199L52.3084 24.0486C51.283 21.9572 49.1505 20.6445 46.8124 20.6445H23.1878C20.8497 20.6445 18.7172 21.9572 17.6919 24.0486L10.5958 38.199C10.3085 38.8142 10.3085 39.594 10.6781 40.1681C11.0882 40.7833 11.7446 41.1523 12.4415 41.1523H57.5587C58.2562 41.1523 58.9126 40.7833 59.3227 40.1681C59.6917 39.594 59.6917 38.8142 59.4044 38.199ZM15.7639 37.0508L21.3421 25.8943C21.7112 25.1974 22.4081 24.7461 23.1878 24.7461H46.8124C47.5921 24.7461 48.2891 25.1974 48.6581 25.8943L54.2363 37.0508H15.7639Z" fill="#FCBF49"/>
<path d="M57.5586 39.1016H35V22.6953H46.8123C48.3712 22.6953 49.8067 23.5567 50.5042 24.9512L57.5586 39.1016Z" fill="#235671"/>
<path d="M45.5 24.5C40.0955 30.0155 33.3343 34.654 26 37.069H54.373L49.5454 25L45.5 24.5Z" fill="#003049"/>
<path d="M59.3221 40.1681C58.9124 40.7833 58.2561 41.1523 57.5586 41.1523H35V37.0508H54.2362L48.658 25.8943C48.289 25.1974 47.592 24.7461 46.8123 24.7461H35V20.6445H46.8123C49.1504 20.6445 51.2829 21.9572 52.3083 24.0486L59.4043 38.199C59.6916 38.8142 59.6916 39.594 59.3221 40.1681Z" fill="#FCBF49"/>
<path d="M57.5586 37.0508H12.4414C6.78146 37.0508 2.1875 41.6447 2.1875 47.3047V55.5078C2.1875 56.4921 2.84386 57.3124 3.74588 57.5175C15.1485 60.2246 25.074 61.5779 35 61.5779C44.926 61.5779 54.8515 60.2246 66.2541 57.5175C67.1561 57.3124 67.8125 56.4921 67.8125 55.5078V47.3047C67.8125 41.6447 63.2185 37.0508 57.5586 37.0508Z" fill="#FCBF49"/>
<path d="M67.8125 47.3047V55.5078C67.8125 56.4921 67.1561 57.3124 66.2541 57.5175C54.8515 60.2246 44.926 61.5779 35 61.5779V37.0508H57.5586C63.2185 37.0508 67.8125 41.6447 67.8125 47.3047Z" fill="#FCBF49"/>
<path d="M20.6465 51.4064C20.482 51.4064 20.3137 51.3866 20.1476 51.3444L11.9445 49.2936C10.8449 49.0191 10.1763 47.9056 10.4524 46.8081C10.7231 45.7064 11.8345 45.0377 12.9379 45.316L21.141 47.3668C22.2406 47.6413 22.9098 48.7548 22.6332 49.8523C22.4008 50.7858 21.5656 51.4064 20.6465 51.4064Z" fill="#ECECF1"/>
<path d="M68.5 48L68.8125 55.457C68.8125 56.4413 68.1561 57.2616 67.2541 57.4667C55.8515 60.1738 45.926 61.5271 36 61.5271L42.0058 59.5174C51.7397 56.2602 60.1574 49.9393 66 41.5C68.5 44 68.5 48 68.5 48Z" fill="#E38100"/>
<path d="M49.3531 51.4062C48.434 51.4062 47.5987 50.7856 47.3664 49.8521C47.0903 48.7546 47.759 47.6411 48.8586 47.3666L57.0617 45.3158C58.149 45.0397 59.2727 45.7062 59.5472 46.8079C59.8233 47.9054 59.1547 49.0189 58.0551 49.2934L49.8519 51.3442C49.6858 51.3864 49.5176 51.4062 49.3531 51.4062Z" fill="#E2E2E7"/>
</svg>
