<svg width="141" height="140" viewBox="0 0 141 140" fill="none" xmlns="http://www.w3.org/2000/svg">
<path d="M70.5 140C97.3525 140 119.121 118.386 119.121 91.7242C119.121 65.0621 97.3525 43.4482 70.5 43.4482C43.6475 43.4482 21.8793 65.0621 21.8793 91.7242C21.8793 118.386 43.6475 140 70.5 140Z" fill="#FCBF49"/>
<path d="M28.6108 116.145C42.1931 139.119 71.9612 146.814 95.0995 133.329C118.238 119.843 125.988 90.2857 112.406 67.3112C112.085 66.7657 111.752 66.2298 111.41 65.6963C91.1614 92.2312 61.6073 110.238 28.6108 116.145Z" fill="#E38100" fill-opacity="0.36"/>
<path d="M46.1897 67.5859C50.2178 67.5859 53.4828 70.8275 53.4828 74.8274V82.0688C53.4828 84.7359 55.6587 86.8964 58.3448 86.8964C61.031 86.8964 63.2069 84.7359 63.2069 82.0688V74.8274C63.2069 70.8278 66.4716 67.5859 70.5 67.5859C74.5282 67.5859 77.7932 70.8275 77.7932 74.8274V82.0688C77.7932 84.7359 79.9691 86.8964 82.6552 86.8964C85.3414 86.8964 87.5173 84.7359 87.5173 82.0688V74.8274C87.5173 70.8278 90.782 67.5859 94.8104 67.5859C98.8386 67.5859 102.104 70.8275 102.104 74.8274V111.034C102.104 115.034 98.8388 118.276 94.8104 118.276C90.7823 118.276 87.5173 115.034 87.5173 111.034V103.793C87.5173 101.126 85.3414 98.9654 82.6552 98.9654C79.9691 98.9654 77.7932 101.126 77.7932 103.793V111.034C77.7932 115.034 74.5285 118.276 70.5 118.276C66.4719 118.276 63.2069 115.034 63.2069 111.034V103.793C63.2069 101.126 61.031 98.9654 58.3448 98.9654C55.6587 98.9654 53.4828 101.126 53.4828 103.793V111.034C53.4828 115.034 50.2181 118.276 46.1897 118.276C42.1615 118.276 38.8965 115.034 38.8965 111.034V74.8274C38.8965 70.8278 42.1615 67.5859 46.1897 67.5859Z" fill="white"/>
<path d="M53.4828 16.8965L65.638 48.2759V74.8275C65.638 77.4946 67.8138 79.655 70.5 79.655C73.1862 79.655 75.362 77.4946 75.362 74.8275V48.2759L87.5172 16.8965H53.4828Z" fill="#555160"/>
<path d="M53.4828 16.8965L65.429 47.735C71.3727 43.6966 76.6872 38.8089 81.1967 33.233L87.5175 16.8965H53.4828Z" fill="#3B3944"/>
<path d="M70.5 33.793C79.8984 33.793 87.5172 26.2282 87.5172 16.8965C87.5172 7.56483 79.8984 0 70.5 0C61.1017 0 53.4828 7.56483 53.4828 16.8965C53.4828 26.2282 61.1017 33.793 70.5 33.793Z" fill="#FCBF49"/>
<path d="M84.3302 7.0752C87.0918 15.9942 82.0474 25.4491 73.0623 28.1911C66.0756 30.3226 58.5004 27.7881 54.2388 21.8911C57.0004 30.8101 66.5204 35.8187 75.5055 33.0791C84.4907 30.3395 89.5326 20.8846 86.7734 11.9632C86.229 10.2132 85.4047 8.56187 84.3302 7.0752Z" fill="#F3A82F"/>
</svg>
