<svg width="18" height="14" viewBox="0 0 18 14" fill="none" xmlns="http://www.w3.org/2000/svg">
<path d="M6.65653 0C6.40066 0 6.1445 0.0994218 5.9495 0.294922L0.29325 5.95117C-0.09775 6.34217 -0.09775 6.97523 0.29325 7.36523L5.9495 13.0215C6.3405 13.4125 6.97356 13.4125 7.36356 13.0215L7.4495 12.9355C7.8405 12.5445 7.8405 11.9115 7.4495 11.5215L3.58622 7.6582H16.6565C17.2085 7.6582 17.6565 7.2102 17.6565 6.6582C17.6565 6.1062 17.2085 5.6582 16.6565 5.6582H3.58622L7.4495 1.79492C7.8405 1.40392 7.8405 0.770859 7.4495 0.380859L7.36356 0.294922C7.16806 0.0994218 6.91241 0 6.65653 0Z" fill="black"/>
</svg>
