<svg width="71" height="70" viewBox="0 0 71 70" fill="none" xmlns="http://www.w3.org/2000/svg">
<path fill-rule="evenodd" clip-rule="evenodd" d="M35.5 0C54.799 0 70.5 15.701 70.5 35C70.5 54.299 54.799 70 35.5 70C16.201 70 0.5 54.299 0.5 35C0.5 15.701 16.201 0 35.5 0ZM35.5 5.25C19.0955 5.25 5.75 18.5955 5.75 35C5.75 51.4045 19.0955 64.75 35.5 64.75C51.9045 64.75 65.25 51.4045 65.25 35C65.25 18.5955 51.9045 5.25 35.5 5.25ZM49.5035 28.0906C50.529 29.1126 50.5325 30.7751 49.5105 31.8041L37.3585 44.0051C36.9665 44.4027 36.458 44.6592 35.9137 44.7459L35.5 44.7786C34.8035 44.7786 34.1315 44.5021 33.6415 44.0051L21.493 31.8041C20.4675 30.7751 20.4745 29.1126 21.5 28.0906C22.529 27.0686 24.1915 27.0686 25.2135 28.0976L35.5 38.4366L45.79 28.0976C46.812 27.0686 48.4745 27.0686 49.5035 28.0906Z" fill="#04CA5F"/>
</svg>
