<svg width="24" height="24" viewBox="0 0 24 24" fill="none" xmlns="http://www.w3.org/2000/svg">
<path fill-rule="evenodd" clip-rule="evenodd" d="M6.65766 2.00054C7.77466 2.01554 8.57066 2.85254 9.57766 3.91154C9.82666 4.17254 10.0957 4.45754 10.3967 4.75754C11.8557 6.21754 11.4407 7.40854 11.1057 8.36454C10.7417 9.40754 10.4267 10.3075 12.3127 12.1935C14.1987 14.0795 15.0977 13.7645 16.1397 13.3975C17.0967 13.0635 18.2847 12.6455 19.7467 14.1055C20.0437 14.4025 20.3237 14.6685 20.5837 14.9155C21.6467 15.9275 22.4867 16.7265 22.5008 17.8465C22.5117 18.8005 21.9317 19.7745 20.4997 21.2065L19.8657 20.7765L20.4027 21.2995C20.0857 21.6245 19.2427 22.4905 17.5917 22.5005H17.5617C15.0697 22.5005 11.8207 20.5165 7.90466 16.6015C3.97266 12.6705 1.98566 9.41154 2.00057 6.91454C2.00966 5.26454 2.87466 4.41954 3.19966 4.10254L3.2274 4.07224L3.29466 4.00454C4.72966 2.56954 5.71566 1.97954 6.65766 2.00054ZM6.63866 3.50054H6.63066C6.18159 3.50054 5.49962 3.95054 4.54848 4.87444L4.35749 5.062L4.35966 5.06154C4.36086 5.06154 4.34334 5.08026 4.31552 5.10863L4.24866 5.17554C4.00666 5.41054 3.50566 5.89954 3.50061 6.92254C3.49266 8.35354 4.43366 11.0105 8.96466 15.5405C13.4737 20.0485 16.1267 21.0005 17.5617 21.0005H17.5827C18.6057 20.9945 19.0937 20.4935 19.3287 20.2525C19.3997 20.1795 19.4577 20.1245 19.4987 20.0915C20.4957 19.0885 21.0057 18.3435 21.0007 17.8645C20.9947 17.3765 20.3877 16.8005 19.5487 16.0015C19.2817 15.7485 18.9917 15.4715 18.6857 15.1655C17.8917 14.3745 17.5007 14.5095 16.6357 14.8135C15.4407 15.2325 13.8037 15.8065 11.2527 13.2535C8.70066 10.7025 9.27266 9.06554 9.68966 7.86954C9.99166 7.00554 10.1297 6.61254 9.33666 5.81854C9.02666 5.50854 8.74766 5.21454 8.49066 4.94454C7.69666 4.11054 7.12366 3.50754 6.63866 3.50054ZM15.2468 5.55804C17.3278 5.96204 18.9348 7.56804 19.3398 9.65004C19.4188 10.058 19.1538 10.451 18.7478 10.53C18.6988 10.539 18.6508 10.544 18.6028 10.544C18.2508 10.544 17.9378 10.296 17.8678 9.93804C17.5798 8.45804 16.4388 7.31704 14.9608 7.03004C14.5538 6.95104 14.2888 6.55804 14.3678 6.15104C14.4468 5.74404 14.8468 5.47804 15.2468 5.55804ZM15.1869 2.00624C19.2649 2.45924 22.4319 5.62224 22.8889 9.69924C22.9349 10.1112 22.6389 10.4822 22.2279 10.5282C22.1999 10.5312 22.1709 10.5332 22.1429 10.5332C21.7659 10.5332 21.4419 10.2502 21.3989 9.86724C21.0199 6.49124 18.3979 3.87124 15.0209 3.49624C14.6099 3.45024 14.3129 3.08024 14.3589 2.66824C14.4039 2.25724 14.7709 1.95424 15.1869 2.00624Z" fill="black"/>
</svg>
