<svg width="22" height="22" viewBox="0 0 22 22" fill="none" xmlns="http://www.w3.org/2000/svg">
<path fill-rule="evenodd" clip-rule="evenodd" d="M10.7484 0.000488281C13.6214 0.000488281 16.3214 1.11749 18.3494 3.14649C22.5414 7.33849 22.5414 14.1585 18.3494 18.3505C16.2944 20.4065 13.5274 21.4945 10.7244 21.4945C9.19644 21.4945 7.65844 21.1715 6.21944 20.5055C5.79544 20.3355 5.39844 20.1755 5.11344 20.1755C4.78544 20.1775 4.34444 20.3295 3.91844 20.4765C3.04444 20.7765 1.95644 21.1505 1.15144 20.3485C0.349437 19.5455 0.719437 18.4605 1.01744 17.5875C1.16444 17.1575 1.31544 16.7135 1.31544 16.3775C1.31544 16.1015 1.18244 15.7495 0.978437 15.2425C-0.894563 11.1975 -0.0285628 6.32249 3.14844 3.14749C5.17644 1.11849 7.87544 0.000488281 10.7484 0.000488281ZM10.7494 1.50049C8.27644 1.50049 5.95344 2.46249 4.20844 4.20849C1.47444 6.94049 0.730437 11.1355 2.35544 14.6485C2.58944 15.2275 2.81544 15.7915 2.81544 16.3775C2.81544 16.9625 2.61444 17.5515 2.43744 18.0715C2.29144 18.4995 2.07044 19.1455 2.21244 19.2875C2.35144 19.4315 3.00144 19.2045 3.43044 19.0575C3.94544 18.8815 4.52944 18.6795 5.10844 18.6755C5.68844 18.6755 6.23544 18.8955 6.81444 19.1285C10.3614 20.7685 14.5564 20.0225 17.2894 17.2905C20.8954 13.6825 20.8954 7.81349 17.2894 4.20749C15.5434 2.46149 13.2214 1.50049 10.7494 1.50049ZM14.6963 10.1632C15.2483 10.1632 15.6963 10.6102 15.6963 11.1632C15.6963 11.7162 15.2483 12.1632 14.6963 12.1632C14.1443 12.1632 13.6923 11.7162 13.6923 11.1632C13.6923 10.6102 14.1353 10.1632 14.6873 10.1632H14.6963ZM10.6875 10.1632C11.2395 10.1632 11.6875 10.6102 11.6875 11.1632C11.6875 11.7162 11.2395 12.1632 10.6875 12.1632C10.1355 12.1632 9.68354 11.7162 9.68354 11.1632C9.68354 10.6102 10.1255 10.1632 10.6785 10.1632H10.6875ZM6.67834 10.1632C7.23034 10.1632 7.67834 10.6102 7.67834 11.1632C7.67834 11.7162 7.23034 12.1632 6.67834 12.1632C6.12634 12.1632 5.67434 11.7162 5.67434 11.1632C5.67434 10.6102 6.11734 10.1632 6.66934 10.1632H6.67834Z" fill="black"/>
</svg>
