<svg width="24" height="24" viewBox="0 0 24 24" fill="none" xmlns="http://www.w3.org/2000/svg">
<path fill-rule="evenodd" clip-rule="evenodd" d="M12.8001 0C18.9757 0 24.0001 5.02438 24.0001 11.2C24.0001 17.3756 18.9757 22.4 12.8001 22.4C6.62448 22.4 1.6001 17.3756 1.6001 11.2C1.6001 5.02438 6.62448 0 12.8001 0ZM12.8001 1.62147C7.51845 1.62147 3.22156 5.91943 3.22156 11.2C3.22156 16.4817 7.51845 20.7785 12.8001 20.7785C18.0818 20.7785 22.3786 16.4817 22.3786 11.2C22.3786 5.91943 18.0818 1.62147 12.8001 1.62147ZM16.9852 7.01543C17.1982 7.22946 17.276 7.54403 17.1852 7.83049L15.4643 13.3316C15.3854 13.5856 15.1854 13.7845 14.9324 13.8634L9.43134 15.5854C9.35135 15.6103 9.2692 15.6222 9.1892 15.6222C8.97733 15.6222 8.76978 15.5389 8.6152 15.3854C8.40225 15.1714 8.32442 14.8568 8.41522 14.5704L10.1372 9.06929C10.2161 8.81418 10.415 8.61636 10.668 8.53745L16.1691 6.81545C16.4577 6.72357 16.7712 6.80248 16.9852 7.01543ZM15.1757 8.82499L11.5576 9.95785L10.4258 13.5759L14.0428 12.443L15.1757 8.82499Z" fill="black"/>
</svg>
