<svg width="24" height="24" viewBox="0 0 24 24" fill="none" xmlns="http://www.w3.org/2000/svg">
<path fill-rule="evenodd" clip-rule="evenodd" d="M9.64251 2C10.5935 2.001 11.4995 2.455 12.0675 3.214L12.9785 4.426C13.2675 4.81 13.7265 5.039 14.2065 5.04H17.0355C20.8975 5.04 22.6965 7.019 22.6965 11.268L22.6685 16.235C22.6675 20.203 20.2015 22.669 16.2315 22.669H8.44951C4.47151 22.669 1.99951 20.202 1.99951 16.232V8.433C1.99951 4.164 3.89851 2 7.64251 2H9.64251ZM9.64151 3.5H7.64251C4.73851 3.5 3.49951 4.976 3.49951 8.433V16.232C3.49951 19.416 5.25751 21.169 8.44951 21.169H16.2315C19.4155 21.169 21.1685 19.416 21.1685 16.232V16.229L21.1965 11.264C21.1965 7.865 20.0305 6.54 17.0355 6.54H14.2055C13.2565 6.539 12.3505 6.086 11.7805 5.328L10.8675 4.114C10.5805 3.729 10.1215 3.501 9.64151 3.5ZM16.7157 14.2128C17.1297 14.2128 17.4657 14.5488 17.4657 14.9628C17.4657 15.3768 17.1297 15.7128 16.7157 15.7128H7.98071C7.56671 15.7128 7.23071 15.3768 7.23071 14.9628C7.23071 14.5488 7.56671 14.2128 7.98071 14.2128H16.7157Z" fill="black"/>
</svg>
