<svg width="18" height="18" viewBox="0 0 18 18" fill="none" xmlns="http://www.w3.org/2000/svg">
<g clip-path="url(#clip0_102_1603)">
<path d="M9 0C4.02975 0 0 4.02975 0 9C0 13.9703 4.02975 18 9 18C13.9703 18 18 13.9703 18 9C18 4.02975 13.9703 0 9 0ZM9 14.745C8.2965 14.745 7.815 14.2028 7.815 13.5C7.815 12.777 8.31675 12.255 9 12.255C9.72225 12.255 10.185 12.777 10.185 13.5C10.185 14.2035 9.72225 14.745 9 14.745ZM9.4665 9.99075C9.28725 10.602 8.7225 10.6125 8.53425 9.99075C8.3175 9.27375 7.54725 6.552 7.54725 4.78425C7.54725 2.45175 10.4655 2.4405 10.4655 4.78425C10.4648 6.5625 9.65325 9.35475 9.4665 9.99075Z" fill="white"/>
</g>
<defs>
<clipPath id="clip0_102_1603">
<rect width="18" height="18" fill="white"/>
</clipPath>
</defs>
</svg>
