<svg width="49" height="49" viewBox="0 0 49 49" fill="none" xmlns="http://www.w3.org/2000/svg">
<path fill-rule="evenodd" clip-rule="evenodd" d="M18.4996 0.666748C20.7186 0.669081 22.8326 1.72841 24.158 3.49941L26.2836 6.32741C26.958 7.22341 28.029 7.75775 29.149 7.76008H35.75C44.7613 7.76008 48.959 12.3777 48.959 22.2921L48.8936 33.8817C48.8913 43.1404 43.1373 48.8944 33.874 48.8944H15.716C6.43396 48.8944 0.665955 43.1381 0.665955 33.8747V15.6771C0.665955 5.71608 5.09696 0.666748 13.833 0.666748H18.4996ZM18.4973 4.16675H13.833C7.05696 4.16675 4.16595 7.61075 4.16595 15.6771V33.8747C4.16595 41.3041 8.26796 45.3944 15.716 45.3944H33.874C41.3033 45.3944 45.3936 41.3041 45.3936 33.8747V33.8677L45.459 22.2827C45.459 14.3517 42.7383 11.2601 35.75 11.2601H29.1466C26.9323 11.2577 24.8183 10.2007 23.4883 8.43208L21.358 5.59941C20.6883 4.70108 19.6173 4.16908 18.4973 4.16675ZM35.0038 29.1633C35.9698 29.1633 36.7538 29.9473 36.7538 30.9133C36.7538 31.8793 35.9698 32.6633 35.0038 32.6633H14.6221C13.6561 32.6633 12.8721 31.8793 12.8721 30.9133C12.8721 29.9473 13.6561 29.1633 14.6221 29.1633H35.0038Z" fill="#04CA5F"/>
</svg>
