<svg width="24" height="24" viewBox="0 0 24 24" fill="none" xmlns="http://www.w3.org/2000/svg">
<path d="M7.94711 3.04698C10.389 1.62813 13.3905 1.65293 15.8095 3.11194C18.2047 4.60067 19.6604 7.25761 19.647 10.1157C19.5911 12.9551 18.0302 15.6241 16.0789 17.6874C14.9528 18.8836 13.6929 19.9414 12.3252 20.8391C12.1843 20.9206 12.03 20.9751 11.8699 21C11.7158 20.9934 11.5657 20.9479 11.4332 20.8675C9.34506 19.5186 7.51314 17.7969 6.02555 15.785C4.78077 14.1056 4.07358 12.0767 4 9.97376L4.00557 9.66783C4.10721 6.92284 5.59242 4.41516 7.94711 3.04698ZM12.8375 7.6271C11.8448 7.20514 10.7003 7.43439 9.93841 8.2078C9.17648 8.98121 8.94742 10.1462 9.35818 11.1589C9.76894 12.1715 10.7385 12.8321 11.8141 12.8321C12.5188 12.8371 13.1962 12.5549 13.6954 12.0482C14.1945 11.5415 14.474 10.8525 14.4715 10.1347C14.4753 9.03898 13.8302 8.04906 12.8375 7.6271Z" fill="#04CA5F"/>
</svg>
