<svg width="24" height="24" viewBox="0 0 24 24" fill="none" xmlns="http://www.w3.org/2000/svg">
<path fill-rule="evenodd" clip-rule="evenodd" d="M11.3085 2C13.7545 2 15.7445 3.99 15.7445 6.436V7.368C15.7445 7.782 15.4085 8.118 14.9945 8.118C14.5805 8.118 14.2445 7.782 14.2445 7.368V6.436C14.2445 4.816 12.9275 3.5 11.3085 3.5H6.43349C4.81649 3.5 3.50049 4.816 3.50049 6.436V17.565C3.50049 19.184 4.81649 20.5 6.43349 20.5H11.3195C12.9315 20.5 14.2445 19.188 14.2445 17.576V16.633C14.2445 16.219 14.5805 15.883 14.9945 15.883C15.4085 15.883 15.7445 16.219 15.7445 16.633V17.576C15.7445 20.016 13.7585 22 11.3195 22H6.43349C3.98949 22 2.00049 20.011 2.00049 17.565V6.436C2.00049 3.99 3.98949 2 6.43349 2H11.3085ZM19.3886 8.554L22.3166 11.469C22.3427 11.4949 22.3661 11.5219 22.3875 11.5504L22.3166 11.469C22.352 11.5039 22.3835 11.5421 22.4109 11.5828C22.4229 11.6012 22.4345 11.6203 22.4453 11.6399C22.454 11.6552 22.462 11.6712 22.4695 11.6875C22.4758 11.7018 22.4818 11.7162 22.4875 11.7308C22.495 11.7498 22.5016 11.7693 22.5074 11.7891C22.5118 11.8047 22.5158 11.8203 22.5193 11.836C22.5237 11.8551 22.5273 11.8743 22.53 11.8937C22.5316 11.9063 22.5331 11.9195 22.5343 11.9328C22.5366 11.9556 22.5376 11.9777 22.5376 12L22.5325 12.062L22.5304 12.1017C22.5302 12.1034 22.53 12.1051 22.5297 12.1068L22.5376 12C22.5376 12.0555 22.5314 12.1105 22.5195 12.1639C22.5158 12.1797 22.5118 12.1953 22.5073 12.2107C22.5016 12.2307 22.495 12.2502 22.4876 12.2695C22.4818 12.2838 22.4758 12.2982 22.4693 12.3123C22.462 12.3288 22.454 12.3448 22.4454 12.3605C22.4345 12.3797 22.4229 12.3988 22.4105 12.4172C22.4035 12.4282 22.3958 12.439 22.3878 12.4497C22.364 12.481 22.338 12.5104 22.3099 12.5377L19.3886 15.447C19.2426 15.593 19.0506 15.666 18.8596 15.666C18.6676 15.666 18.4746 15.593 18.3286 15.445C18.0366 15.151 18.0376 14.677 18.3306 14.385L19.9705 12.75H9.74629C9.33229 12.75 8.99629 12.414 8.99629 12C8.99629 11.586 9.33229 11.25 9.74629 11.25H19.9725L18.3306 9.616C18.0376 9.324 18.0356 8.85 18.3286 8.556C18.6206 8.262 19.0946 8.262 19.3886 8.554Z" fill="black"/>
</svg>
