<svg width="16" height="16" viewBox="0 0 16 16" fill="none" xmlns="http://www.w3.org/2000/svg">
<g clip-path="url(#clip0_152_5055)">
<path d="M14.4516 0.774414H1.54839C0.696774 0.774414 0 1.47119 0 2.3228C0 3.17441 0.696774 3.87119 1.54839 3.87119H14.4516C15.3032 3.87119 16 3.17441 16 2.3228C16 1.47119 15.3032 0.774414 14.4516 0.774414Z" fill="black"/>
<path d="M14.4516 6.45166H1.54839C0.696774 6.45166 0 7.14843 0 8.00005C0 8.85166 0.696774 9.54844 1.54839 9.54844H14.4516C15.3032 9.54844 16 8.85166 16 8.00005C16 7.14843 15.3032 6.45166 14.4516 6.45166Z" fill="black"/>
<path d="M14.4516 12.1294H1.54839C0.696774 12.1294 0 12.8262 0 13.6778C0 14.5294 0.696774 15.2262 1.54839 15.2262H14.4516C15.3032 15.2262 16 14.5294 16 13.6778C16 12.8262 15.3032 12.1294 14.4516 12.1294Z" fill="black"/>
</g>
<defs>
<clipPath id="clip0_152_5055">
<rect width="16" height="16" fill="white"/>
</clipPath>
</defs>
</svg>
