<svg width="24" height="24" viewBox="0 0 24 24" fill="none" xmlns="http://www.w3.org/2000/svg">
<path fill-rule="evenodd" clip-rule="evenodd" d="M17.124 1.35596C20.7558 1.35596 23.7101 4.34906 23.7101 8.02979V16.0155C23.7101 19.6951 20.7558 22.6893 17.124 22.6893H7.63073C3.99883 22.6893 1.04346 19.6951 1.04346 16.0155V8.02979C1.04346 4.34906 3.99883 1.35596 7.63073 1.35596H17.124ZM17.124 3.02497H7.63073C4.90708 3.02497 2.69082 5.27035 2.69082 8.02979V16.0155C2.69082 18.7749 4.90708 21.0203 7.63073 21.0203H17.124C19.8476 21.0203 22.0628 18.7749 22.0628 16.0155V15.7039L18.4409 15.7046C16.3575 15.7046 14.6618 13.9877 14.6607 11.8781C14.6607 9.76623 16.3564 8.04826 18.4409 8.04714L22.0628 8.04648V8.02979C22.0628 5.27035 19.8476 3.02497 17.124 3.02497ZM22.0628 9.71549L18.4409 9.71616C17.2646 9.71727 16.3081 10.6864 16.3081 11.877C16.3081 13.0664 17.2657 14.0356 18.4409 14.0356L22.0628 14.0349V9.71549ZM18.9434 10.9735C19.3981 10.9735 19.7671 11.3473 19.7671 11.808C19.7671 12.2686 19.3981 12.6425 18.9434 12.6425H18.6008C18.1461 12.6425 17.7771 12.2686 17.7771 11.808C17.7771 11.3473 18.1461 10.9735 18.6008 10.9735H18.9434ZM12.7782 6.40539C13.2329 6.40539 13.6019 6.77925 13.6019 7.2399C13.6019 7.70055 13.2329 8.0744 12.7782 8.0744H6.84878C6.3941 8.0744 6.02509 7.70055 6.02509 7.2399C6.02509 6.77925 6.3941 6.40539 6.84878 6.40539H12.7782Z" fill="black"/>
</svg>
